<svg viewBox="0 0 433 125.773" xmlns="http://www.w3.org/2000/svg" xmlns:xlink="http://www.w3.org/1999/xlink">
	<g transform="translate(0 -14.625)">
		<g id="brand-claim-german">
			<g fill="#000" id="claim-german">
				<path d="M144.369 119.502v-2.2h16.766v2.2h-7.044v20.592h-2.646v-20.592zM175.099 137.448c-1.53 2.2-3.666 2.933-6.344 2.933-5.29 0-8.255-3.475-8.255-8.575 0-5.132 3.092-8.67 7.586-8.67 4.431 0 7.14 3.124 7.14 8.288v.86h-11.985c.064 2.39.606 3.73 1.753 4.781a5.186 5.186 0 003.698 1.117 4.877 4.877 0 004.462-2.296zm-2.582-7.3c-.35-3.41-1.626-4.813-4.399-4.813-2.646 0-4.176 1.562-4.781 4.813zM193.238 136.874a6.939 6.939 0 01-6.534 3.507c-4.654 0-7.842-3.538-7.842-8.607 0-5.164 3.092-8.638 7.682-8.638a7.064 7.064 0 016.28 3.315l-2.2 1.37c-1.243-1.848-2.231-2.486-4.048-2.486-3.124 0-4.972 2.39-4.972 6.503 0 4.048 1.816 6.344 5.163 6.344a4.71 4.71 0 004.399-2.487zM199.934 116.092v9.88a5.326 5.326 0 015.068-2.836c3.57 0 5.515 2.327 5.515 6.63v10.328h-2.646v-10.519c0-2.869-1.083-4.144-3.538-4.144a4.15 4.15 0 00-4.399 4.463v10.2h-2.645v-24.002zM219.54 123.423v2.55a5.327 5.327 0 015.068-2.837c3.57 0 5.515 2.327 5.515 6.63v10.328h-2.645v-10.519c0-2.869-1.085-4.144-3.539-4.144a4.151 4.151 0 00-4.399 4.463v10.2h-2.646v-16.671zM239.56 118.228a1.753 1.753 0 11-1.752-1.754 1.769 1.769 0 011.753 1.754zm-.381 5.195v16.67h-2.646v-16.67zM248.423 134.866v5.228h-2.646v-24.002h2.646v15.332l6.79-8.001h3.123l-5.674 6.534 6.503 10.137h-2.996l-5.228-8.128zM273.99 123.423v-2.327c0-3.41 1.817-5.355 4.94-5.355a5.83 5.83 0 012.997.765l-.67 2.04a4.332 4.332 0 00-2.2-.606c-1.53 0-2.421 1.084-2.421 2.869v2.614h3.824v2.199h-3.824v14.472h-2.647v-14.472h-2.39v-2.2zM294.838 137.544a5.325 5.325 0 01-5.068 2.837c-3.506 0-5.387-2.327-5.387-6.63v-10.328h2.645v10.518c0 2.87 1.052 4.145 3.411 4.145a4.15 4.15 0 004.399-4.463v-10.2h2.645v16.67h-2.645zm-4.94-19.412a1.801 1.801 0 11-1.818-1.785 1.853 1.853 0 011.817 1.785zm5.96 0a1.801 1.801 0 11-1.785-1.785 1.847 1.847 0 011.785 1.785zM306.697 123.423v2.678c1.084-2.01 2.519-2.965 4.463-2.965a5.337 5.337 0 012.71.67l-1.084 2.23a3.64 3.64 0 00-1.945-.51c-2.581 0-4.144 2.073-4.144 5.42v9.148h-2.645v-16.671zM325.378 127.312a4.853 4.853 0 00-4.048-1.977c-1.976 0-3.092.83-3.092 2.264a1.98 1.98 0 00.828 1.657 8.878 8.878 0 002.996 1.052c2.551.605 3.444.988 4.4 1.848a4.392 4.392 0 011.307 3.252c0 3.029-2.455 4.973-6.28 4.973a8.115 8.115 0 01-6.885-3.22l1.913-1.561c1.498 1.975 2.645 2.582 4.877 2.582 2.454 0 3.793-.925 3.793-2.551a2.118 2.118 0 00-.956-1.849c-.638-.446-1.02-.542-3.347-1.115-3.73-.893-5.228-2.327-5.228-4.91 0-2.868 2.167-4.621 5.705-4.621a6.917 6.917 0 015.739 2.423zM345.876 117.303v20.592h11.348v2.199H343.23v-22.791zM374.343 137.448c-1.53 2.2-3.665 2.933-6.343 2.933-5.292 0-8.256-3.475-8.256-8.575 0-5.132 3.092-8.67 7.586-8.67 4.43 0 7.14 3.124 7.14 8.288v.86h-11.985c.064 2.39.606 3.73 1.753 4.781a5.185 5.185 0 003.698 1.117 4.877 4.877 0 004.462-2.296zm-2.582-7.3c-.35-3.41-1.625-4.813-4.399-4.813-2.645 0-4.175 1.562-4.78 4.813zM381.963 126.164a6.328 6.328 0 015.547-3.028c4.27 0 7.107 3.379 7.107 8.543 0 5.26-2.805 8.702-7.14 8.702a6.178 6.178 0 01-5.514-2.965v2.678h-2.646v-24.002h2.646zm-.096 5.61c0 4.08 1.881 6.408 5.164 6.408 3.22 0 4.845-2.105 4.845-6.344 0-4.08-1.784-6.503-4.813-6.503-3.251 0-5.196 2.423-5.196 6.44zM412.98 137.448c-1.53 2.2-3.665 2.933-6.342 2.933-5.292 0-8.256-3.475-8.256-8.575 0-5.132 3.092-8.67 7.586-8.67 4.43 0 7.14 3.124 7.14 8.288v.86h-11.985c.064 2.39.606 3.73 1.753 4.781a5.185 5.185 0 003.697 1.117 4.876 4.876 0 004.463-2.296zm-2.582-7.3c-.35-3.41-1.625-4.813-4.398-4.813-2.645 0-4.176 1.562-4.781 4.813zM420.792 123.423v2.55a5.327 5.327 0 015.068-2.837c3.57 0 5.515 2.327 5.515 6.63v10.328h-2.646v-10.519c0-2.869-1.084-4.144-3.538-4.144a4.151 4.151 0 00-4.399 4.463v10.2h-2.646v-16.671z"/>
			</g>
			<g id="brand-german-2">
				<g data-name="logotype" fill="#ea0016" fill-rule="evenodd" id="logotype-21">
					<path d="M185.2 61.325a13.766 13.766 0 008.8-13c0-11.7-8.3-17.5-19.7-17.5h-29.9v63.6h32.5c10 0 19.8-7 19.8-17.7 0-12.7-11.5-15.3-11.5-15.4zm-25.2-17.3h11.6a5.669 5.669 0 016 6 5.927 5.927 0 01-6.3 5.8h-11.4l.1-11.8zm11.7 37.1h-11.6v-12.5h11.3c5.7 0 8.4 2.5 8.4 6.2 0 4.6-3.4 6.3-8.1 6.3z" data-name="logotype-b" id="logotype-b-21"/>
					<path d="M231.1 29.225c-18.4 0-29.2 14.7-29.2 33.3 0 18.7 10.8 33.3 29.2 33.3 18.5 0 29.2-14.6 29.2-33.3 0-18.6-10.7-33.3-29.2-33.3zm0 51.4c-9 0-13.5-8.1-13.5-18.1s4.5-18 13.5-18 13.6 8.1 13.6 18c0 10.1-4.6 18.1-13.6 18.1z" data-name="logotype-o" id="logotype-o-21"/>
					<path d="M294.2 55.825l-2.2-.5c-5.4-1.1-9.7-2.5-9.7-6.4 0-4.2 4.1-5.9 7.7-5.9a17.894 17.894 0 0113 5.9l9.9-9.8c-4.5-5.1-11.8-10-23.2-10-13.4 0-23.6 7.5-23.6 20 0 11.4 8.2 17 18.2 19.1l2.2.5c8.3 1.7 11.4 3 11.4 7 0 3.8-3.4 6.3-8.6 6.3-6.2 0-11.8-2.7-16.1-8.2l-10.1 10c5.6 6.7 12.7 11.9 26.4 11.9 11.9 0 24.6-6.8 24.6-20.7.2-14.5-10.8-17.3-19.9-19.2z" data-name="logotype-s" id="logotype-s-21"/>
					<path d="M349.7 80.625c-7 0-14.3-5.8-14.3-18.5 0-11.3 6.8-17.6 13.9-17.6 5.6 0 8.9 2.6 11.5 7.1l12.8-8.5c-6.4-9.7-14-13.8-24.5-13.8-19.2 0-29.6 14.9-29.6 32.9 0 18.9 11.5 33.7 29.4 33.7 12.6 0 18.6-4.4 25.1-13.8l-12.9-8.7c-2.6 4.2-5.4 7.2-11.4 7.2z" data-name="logotype-c" id="logotype-c-21"/>
					<path d="M416.3 30.825v23.4H397v-23.4h-16.7v63.6H397v-25.1h19.3v25.1H433v-63.6h-16.7z" data-name="logotype-h" id="logotype-h-21"/>
				</g>
				<g data-name="symbol" fill="#606061" id="symbol-21">
					<path d="M48.2 14.625a48.2 48.2 0 1048.2 48.2 48.226 48.226 0 00-48.2-48.2zm0 91.9a43.7 43.7 0 1143.7-43.7 43.745 43.745 0 01-43.7 43.7z"/>
					<path d="M68.1 32.725h-3.3v16.5H31.7v-16.5h-3.4a36.063 36.063 0 000 60.2h3.4v-16.5h33.1v16.5h3.3a36.063 36.063 0 000-60.2zm-41 53.7a31.572 31.572 0 010-47.2zm37.7-14.6H31.7v-18.1h33.1zm4.5 14.5v-47.1a31.66 31.66 0 010 47.1z"/>
				</g>
			</g>
		</g>
	</g>
</svg>
