<?xml version="1.0" encoding="UTF-8"?>
<svg width="71px" height="18px" viewBox="0 0 71 18" version="1.1" xmlns="http://www.w3.org/2000/svg" xmlns:xlink="http://www.w3.org/1999/xlink">
    <!-- Generator: Sketch 56.2 (81672) - https://sketch.com -->
    <title>codrops</title>
    <desc>Created with Sketch.</desc>
    <g id="Page-1" stroke="none" stroke-width="1" fill="none" fill-rule="evenodd">
        <g id="Homepage" transform="translate(-70.000000, -51.000000)" fill="#334BF7" fill-rule="nonzero">
            <g id="header">
                <g transform="translate(70.000000, 49.000000)" id="codrops">
                    <path d="M5.47159091,16.1917614 C4.49573376,16.1917614 3.65625352,15.9765647 2.953125,15.5461648 C2.24999648,15.1157649 1.70987404,14.51918 1.33274148,13.756392 C0.95560891,12.9936041 0.767045455,12.1179027 0.767045455,11.1292614 C0.767045455,10.1278359 0.958804901,9.24680778 1.34232955,8.48615057 C1.72585419,7.72549336 2.26810729,7.12997374 2.96910511,6.69957386 C3.67010294,6.26917398 4.49999521,6.05397727 5.45880682,6.05397727 C6.25994719,6.05397727 6.96732648,6.19992752 7.58096591,6.49183239 C8.19460534,6.78373725 8.68465726,7.1938894 9.05113636,7.72230114 C9.41761547,8.25071287 9.6264202,8.87073508 9.67755682,9.58238636 L7.46590909,9.58238636 C7.37642001,9.10937263 7.16441929,8.71413511 6.82990057,8.39666193 C6.49538185,8.07918875 6.04900847,7.92045455 5.49076705,7.92045455 C4.77911576,7.92045455 4.20490275,8.2006364 3.7681108,8.76100852 C3.33131884,9.32138064 3.11292614,10.0980064 3.11292614,11.0909091 C3.11292614,12.0923346 3.32918818,12.8785483 3.76171875,13.4495739 C4.19424932,14.0205994 4.77059299,14.306108 5.49076705,14.306108 C5.99787185,14.306108 6.42933061,14.161223 6.78515625,13.8714489 C7.14098189,13.5816747 7.36789724,13.1725879 7.46590909,12.6441761 L9.67755682,12.6441761 C9.62215881,13.3387819 9.4176154,13.9524121 9.06392045,14.4850852 C8.7102255,15.0177583 8.22869623,15.4353678 7.61931818,15.7379261 C7.00994013,16.0404845 6.2940382,16.1917614 5.47159091,16.1917614 Z M15.8650568,16.1917614 C14.9062452,16.1917614 14.0752876,15.980826 13.3721591,15.5589489 C12.6690306,15.1370718 12.1246468,14.5458135 11.7389915,13.7851563 C11.3533361,13.024499 11.1605114,12.1392096 11.1605114,11.1292614 C11.1605114,10.1150517 11.3533361,9.22763164 11.7389915,8.46697443 C12.1246468,7.70631722 12.6690306,7.1139936 13.3721591,6.6899858 C14.0752876,6.26597799 14.9062452,6.05397727 15.8650568,6.05397727 C16.8238684,6.05397727 17.6558914,6.26597799 18.3611506,6.6899858 C19.0664098,7.1139936 19.6107935,7.70631722 19.9943182,8.46697443 C20.3778428,9.22763164 20.5696023,10.1150517 20.5696023,11.1292614 C20.5696023,12.1392096 20.3778428,13.024499 19.9943182,13.7851563 C19.6107935,14.5458135 19.0664098,15.1370718 18.3611506,15.5589489 C17.6558914,15.980826 16.8238684,16.1917614 15.8650568,16.1917614 Z M15.8778409,14.3380682 C16.4019913,14.3380682 16.8377113,14.1953139 17.1850142,13.9098011 C17.5323171,13.6242883 17.7922577,13.2375735 17.9648438,12.7496449 C18.1374298,12.2617163 18.2237216,11.7194632 18.2237216,11.1228693 C18.2237216,10.522014 18.1374298,9.97763028 17.9648438,9.4897017 C17.7922577,9.00177313 17.5323171,8.61292759 17.1850142,8.32315341 C16.8377113,8.03337923 16.4019913,7.88849432 15.8778409,7.88849432 C15.3494292,7.88849432 14.9094478,8.03337923 14.5578835,8.32315341 C14.2063193,8.61292759 13.9431827,9.00177313 13.7684659,9.4897017 C13.5937491,9.97763028 13.506392,10.522014 13.506392,11.1228693 C13.506392,11.7194632 13.5937491,12.2617163 13.7684659,12.7496449 C13.9431827,13.2375735 14.2063193,13.6242883 14.5578835,13.9098011 C14.9094478,14.1953139 15.3494292,14.3380682 15.8778409,14.3380682 Z M26.1690341,16.1725852 C25.3977234,16.1725852 24.7073894,15.9744338 24.0980114,15.578125 C23.4886333,15.1818162 23.007104,14.6065379 22.6534091,13.8522727 C22.2997141,13.0980076 22.1228693,12.1818236 22.1228693,11.1036932 C22.1228693,10.0127786 22.3029101,9.0923333 22.6629972,8.34232955 C23.0230842,7.5923258 23.5099401,7.02343944 24.1235795,6.63565341 C24.737219,6.24786738 25.421161,6.05397727 26.1754261,6.05397727 C26.7549745,6.05397727 27.2290465,6.15092233 27.5976563,6.34481534 C27.966266,6.53870836 28.2602972,6.77095035 28.4797585,7.0415483 C28.6992198,7.31214624 28.8664767,7.56676017 28.9815341,7.80539773 L29.0774148,7.80539773 L29.0774148,2.90909091 L31.3977273,2.90909091 L31.3977273,16 L29.1221591,16 L29.1221591,14.453125 L28.9815341,14.453125 C28.8622153,14.6917626 28.6896318,14.9442458 28.4637784,15.2105824 C28.237925,15.4769189 27.9396325,15.7038343 27.568892,15.8913352 C27.1981516,16.0788362 26.7315369,16.1725852 26.1690341,16.1725852 Z M26.8146307,14.2741477 C27.5518503,14.2741477 28.1207366,13.9811819 28.5213068,13.3952415 C28.921877,12.809301 29.1221591,12.0411979 29.1221591,11.0909091 C29.1221591,10.1363589 28.9240077,9.37464773 28.5276989,8.80575284 C28.1313901,8.23685795 27.560373,7.95241477 26.8146307,7.95241477 C26.04332,7.95241477 25.4616497,8.24644592 25.0696023,8.83451705 C24.6775549,9.42258817 24.4815341,10.1747113 24.4815341,11.0909091 C24.4815341,12.0113682 24.6796855,12.772014 25.0759943,13.3728693 C25.4723031,13.9737246 26.0518428,14.2741477 26.8146307,14.2741477 Z M33.8714489,16 L33.8714489,6.18181818 L36.1150568,6.18181818 L36.1150568,7.81818182 L36.2173295,7.81818182 C36.3963077,7.24715624 36.7041882,6.80824017 37.1409801,6.50142045 C37.5777721,6.19460074 38.077412,6.04119318 38.6399148,6.04119318 C38.7677563,6.04119318 38.9115759,6.04651983 39.0713778,6.0571733 C39.2311798,6.06782676 39.3643461,6.08380671 39.4708807,6.10511364 L39.4708807,8.23366477 C39.3728688,8.19957369 39.2183959,8.16867912 39.0074574,8.14098011 C38.7965188,8.11328111 38.5930408,8.09943182 38.397017,8.09943182 C37.7620707,8.09943182 37.2347322,8.29864858 36.8149858,8.69708807 C36.3952394,9.09552756 36.1853693,9.60582075 36.1853693,10.227983 L36.1853693,16 L33.8714489,16 Z M44.8849432,16.1917614 C43.9261316,16.1917614 43.095174,15.980826 42.3920455,15.5589489 C41.6889169,15.1370718 41.1445332,14.5458135 40.7588778,13.7851563 C40.3732225,13.024499 40.1803977,12.1392096 40.1803977,11.1292614 C40.1803977,10.1150517 40.3732225,9.22763164 40.7588778,8.46697443 C41.1445332,7.70631722 41.6889169,7.1139936 42.3920455,6.6899858 C43.095174,6.26597799 43.9261316,6.05397727 44.8849432,6.05397727 C45.8437548,6.05397727 46.6757777,6.26597799 47.3810369,6.6899858 C48.0862961,7.1139936 48.6306799,7.70631722 49.0142045,8.46697443 C49.3977292,9.22763164 49.5894886,10.1150517 49.5894886,11.1292614 C49.5894886,12.1392096 49.3977292,13.024499 49.0142045,13.7851563 C48.6306799,14.5458135 48.0862961,15.1370718 47.3810369,15.5589489 C46.6757777,15.980826 45.8437548,16.1917614 44.8849432,16.1917614 Z M44.8977273,14.3380682 C45.4218776,14.3380682 45.8575977,14.1953139 46.2049006,13.9098011 C46.5522034,13.6242883 46.812144,13.2375735 46.9847301,12.7496449 C47.1573162,12.2617163 47.243608,11.7194632 47.243608,11.1228693 C47.243608,10.522014 47.1573162,9.97763028 46.9847301,9.4897017 C46.812144,9.00177313 46.5522034,8.61292759 46.2049006,8.32315341 C45.8575977,8.03337923 45.4218776,7.88849432 44.8977273,7.88849432 C44.3693155,7.88849432 43.9293341,8.03337923 43.5777699,8.32315341 C43.2262056,8.61292759 42.9630691,9.00177313 42.7883523,9.4897017 C42.6136355,9.97763028 42.5262784,10.522014 42.5262784,11.1228693 C42.5262784,11.7194632 42.6136355,12.2617163 42.7883523,12.7496449 C42.9630691,13.2375735 43.2262056,13.6242883 43.5777699,13.9098011 C43.9293341,14.1953139 44.3693155,14.3380682 44.8977273,14.3380682 Z M51.5454545,19.6818182 L51.5454545,6.18181818 L53.8210227,6.18181818 L53.8210227,7.80539773 L53.9552557,7.80539773 C54.0745745,7.56676017 54.2418313,7.31214624 54.4570312,7.0415483 C54.6722312,6.77095035 54.9662623,6.53870836 55.3391335,6.34481534 C55.7120047,6.15092233 56.1860767,6.05397727 56.7613636,6.05397727 C57.5198902,6.05397727 58.2048975,6.24786738 58.8164062,6.63565341 C59.427915,7.02343944 59.9137056,7.5923258 60.2737926,8.34232955 C60.6338796,9.0923333 60.8139205,10.0127786 60.8139205,11.1036932 C60.8139205,12.1818236 60.6370756,13.0980076 60.2833807,13.8522727 C59.9296857,14.6065379 59.4481565,15.1818162 58.8387784,15.578125 C58.2294004,15.9744338 57.5390664,16.1725852 56.7677557,16.1725852 C56.2052529,16.1725852 55.7386382,16.0788362 55.3678977,15.8913352 C54.9971572,15.7038343 54.6999301,15.4769189 54.4762074,15.2105824 C54.2524847,14.9442458 54.0788358,14.6917626 53.9552557,14.453125 L53.859375,14.453125 L53.859375,19.6818182 L51.5454545,19.6818182 Z M53.8146307,11.0909091 C53.8146307,12.0411979 54.0149128,12.809301 54.415483,13.3952415 C54.8160531,13.9811819 55.3849395,14.2741477 56.1221591,14.2741477 C56.884947,14.2741477 57.4644867,13.9737246 57.8607955,13.3728693 C58.2571043,12.772014 58.4552557,12.0113682 58.4552557,11.0909091 C58.4552557,10.1747113 58.2592349,9.42258817 57.8671875,8.83451705 C57.4751401,8.24644592 56.8934698,7.95241477 56.1221591,7.95241477 C55.3764167,7.95241477 54.8053997,8.23685795 54.4090909,8.80575284 C54.0127821,9.37464773 53.8146307,10.1363589 53.8146307,11.0909091 Z M70.5490057,8.77698864 L68.4396307,9.00710227 C68.3501416,8.68323702 68.1594475,8.39772851 67.8675426,8.15056818 C67.5756377,7.90340786 67.1633549,7.77982955 66.6306818,7.77982955 C66.1491453,7.77982955 65.7453852,7.88423191 65.4193892,8.09303977 C65.0933933,8.30184763 64.9325284,8.57244152 64.9367898,8.90482955 C64.9325284,9.19034234 65.0379961,9.42364966 65.253196,9.60475852 C65.468396,9.78586738 65.8252816,9.93181763 66.3238636,10.0426136 L67.9985795,10.4005682 C69.8352365,10.8011384 70.7556818,11.6874931 70.7599432,13.0596591 C70.7599432,13.6775599 70.5809677,14.2219437 70.2230114,14.6928267 C69.865055,15.1637097 69.3707418,15.5312487 68.7400568,15.7954545 C68.1093718,16.0596604 67.3849473,16.1917614 66.5667614,16.1917614 C65.3607894,16.1917614 64.3934696,15.9382128 63.6647727,15.431108 C62.9360759,14.9240031 62.4992905,14.2208852 62.3544034,13.321733 L64.6107955,13.1044034 C64.8110805,13.9992942 65.460932,14.446733 66.5603693,14.446733 C67.110088,14.446733 67.5522,14.3348733 67.8867187,14.1111506 C68.2212375,13.8874279 68.3884943,13.607246 68.3884943,13.2705966 C68.3884943,12.7208779 67.9474476,12.3480123 67.0653409,12.1519886 L65.390625,11.8004261 C64.4488589,11.6044024 63.7521329,11.2730847 63.3004261,10.8064631 C62.8487193,10.3398414 62.625,9.74858312 62.6292614,9.03267045 C62.6292614,8.42755379 62.7954529,7.90234598 63.1278409,7.45703125 C63.4602289,7.01171652 63.9247129,6.66654952 64.5213068,6.42151989 C65.1179007,6.17649025 65.8103654,6.05397727 66.5987216,6.05397727 C67.7492955,6.05397727 68.6558916,6.30006856 69.3185369,6.79225852 C69.9811823,7.28444848 70.3913344,7.94601857 70.5490057,8.77698864 Z"></path>
                </g>
            </g>
        </g>
    </g>
</svg>