<?xml version="1.0" encoding="utf-8"?>
<!-- Generator: Adobe Illustrator 21.1.0, SVG Export Plug-In . SVG Version: 6.00 Build 0)  -->
<svg version="1.1" id="Layer_1" xmlns="http://www.w3.org/2000/svg" xmlns:xlink="http://www.w3.org/1999/xlink" x="0px" y="0px"
	 width="391.1px" height="108px" viewBox="0 0 391.1 108" style="enable-background:new 0 0 391.1 108;" xml:space="preserve">
<style type="text/css">
	.st0{fill:#D3002D;}
	.st1{fill:#FFFFFF;}
</style>
<rect class="st0" width="391.1" height="108"/>
<polygon class="st1" points="196.5,35.3 196.5,26.1 158,26.1 158,81.4 196.5,81.4 196.5,72.2 167.2,72.2 167.2,58.4 195.1,58.4 
	195.1,49.2 167.2,49.2 167.2,35.3 "/>
<polygon class="st1" points="225,81.4 225,26.1 234.2,26.1 234.2,72.2 260.8,72.2 260.8,81.4 "/>
<polygon class="st1" points="268.3,81.4 268.3,26.1 277.6,26.1 277.6,72.2 304.2,72.2 304.2,81.4 "/>
<rect x="206.2" y="26.1" class="st1" width="9.2" height="55.3"/>
<path class="st1" d="M42.9,40.2c-3.6,3.6-5.7,8.4-5.7,13.9c0,5.4,2.2,10.3,5.7,13.8c3.6,3.6,8.4,5.7,13.9,5.7
	c5.4,0,10.3-2.2,13.9-5.7c3.6-3.6,5.7-8.4,5.7-13.8c0-5.4-2.2-10.3-5.7-13.9c-3.6-3.5-8.4-5.7-13.9-5.7
	C51.4,34.4,46.5,36.6,42.9,40.2 M28,54c0-15.9,12.9-28.8,28.8-28.8c15.9,0,28.8,12.9,28.8,28.8c0,15.9-12.9,28.8-28.8,28.8
	C40.9,82.8,28,69.9,28,54"/>
<path class="st1" d="M114.1,49.2V35.3h18.6c3.8,0,6.9,3.1,6.9,6.9c0,3.8-3.1,6.9-6.9,6.9H114.1z M137.3,57.7
	c6.7-2,11.5-8.1,11.5-15.4c0-8.9-7.2-16.1-16.1-16.1h-27.8v55.3h9.2v-23h12.8l13.9,23h10.8L137.3,57.7z"/>
<path class="st1" d="M98.3,32c0,3.8-3,6.8-6.8,6.8c-3.7,0-6.8-3-6.8-6.8c0-3.7,3-6.8,6.8-6.8C95.3,25.2,98.3,28.3,98.3,32"/>
<polygon class="st1" points="345.3,26.1 334.1,26.1 319.9,46.7 305.7,26.1 294.5,26.1 315.2,56.2 315.2,81.4 324.5,81.4 324.5,56.2 
	"/>
<g>
	<path class="st1" d="M356.2,37.4c-3.2,0-5.7-2.6-5.7-5.7c0-3.2,2.6-5.7,5.7-5.7c3.2,0,5.7,2.6,5.7,5.7
		C361.9,34.9,359.3,37.4,356.2,37.4 M356.2,24.9c-3.8,0-6.8,3.1-6.8,6.8c0,3.8,3.1,6.8,6.8,6.8c3.8,0,6.8-3.1,6.8-6.8
		C363,27.9,359.9,24.9,356.2,24.9"/>
	<path class="st1" d="M354.5,29.3h2.7c0.5,0,0.9,0.4,0.9,0.9c0,0.5-0.4,0.9-0.9,0.9h-2.7V29.3z M359.2,30.2c0-1.1-0.9-2-2-2h-3.8v7
		h1.2v-2.9h1.9l1.4,2.9h1.3l-1.4-3C358.6,31.9,359.2,31.2,359.2,30.2"/>
</g>
</svg>
