<svg id="whs-logo-svg" data-name="whs-logo-svg" xmlns="http://www.w3.org/2000/svg" viewBox="0 0 360 148.21"><defs><style>.cls-1{fill:#0078bf;}</style></defs><title>WebMD Health Services Logo</title><path class="cls-1" d="M97.09,9.16c.54-1.44,1.77-4.2,3.49-5.08.88-.47,2.61-.44,2.91-1.65s-.78-1.53-5-1.53H85.65c-3.91,0-5.73,0-5.48,1.7.13.9,1.5,1.16,2.1,1.34,3.71,1,6.2,2.92,5,6.8S70,62.19,70,62.19c-.64,1.71-2.2,2.19-2.7-.34l-8.5-40c-.7-3.28-1.51-7.49-1.78-9.33a3.57,3.57,0,0,0-3.61-2.63A3.77,3.77,0,0,0,49.89,12c-1.08,2.24-3.21,6.54-4.73,9.53L23.85,62.47c-.87,1.52-2,1.07-2.12-.76L19.08,20.24c0-3.27-.31-9.63-.31-10.72A5.72,5.72,0,0,1,23.15,4c.61-.17,2.06-.51,2.19-1.41C25.59.91,23.69.94,19.77.94H5.61c-.73,0-1.38,0-1.94,0C1,1-.18,1.27,0,2.64.16,3.54,1.53,3.81,2.13,4A5.64,5.64,0,0,1,5.83,7.24,17.75,17.75,0,0,1,6.38,9c0,.1,0,.2.07.31a2,2,0,0,1,.05.26c0,.11,0,.22.07.32A93.05,93.05,0,0,1,8.15,21L11.6,71.67C11.81,75,11.7,79.88,12.7,82s5.72,2,7.59-.84c.53-.8,27.11-50.77,27.11-50.77,1.55-3,3.37-2.71,4,.57l8.38,41.2A68.63,68.63,0,0,0,62,81.2c1.15,3,6.84,2.46,8.35-.45a76.64,76.64,0,0,0,3.87-9.17S96.09,11.78,97.09,9.16m70.14,19.54c-10.39,0-19.86,9.47-26.11,16.63a37.57,37.57,0,0,1,1.52-6.06l9.69-32.48A4.3,4.3,0,0,0,148,.93l-8.19,0c-3.92,0-5.73.06-5.48,1.71.14.9,1.5,1.16,2.11,1.33,3.89,1.09,5.16,5.44,4.13,10.15,0-.39-9.68,38.4-9.68,38.4a25.57,25.57,0,0,1-6.12,10.16S113,77,101.16,77c-5.43,0-9.47-3.11-9.47-8.89a36.33,36.33,0,0,1,.92-8.62C105,58.31,127,52.61,127,36.9c0-6.36-6.12-8.2-11.33-8.2C99,28.69,82.44,49.14,82.44,67.63c0,7.74,3.57,15.59,14.21,15.59,20,0,30.83-19.51,31.44-20.15a53.88,53.88,0,0,0-1,7.8c0,8.44,6.13,12.36,13.76,12.36,5.58,0,11.41-2,16.92-5.28a49.84,49.84,0,0,0,11.63-9.85c6.48-7.32,10.85-16.32,10.85-24.73,0-8.77-3.81-14.66-13.07-14.66m-54.17,3.7c3,0,4.74,2,4.74,5,0,12.6-14,18.14-24.61,18.84,1.86-7.63,11-23.8,19.88-23.8m52.65,27.43a54.71,54.71,0,0,1-9.85,13.83c-4,4-8.58,6.58-13.12,6.58-5.31,0-7.05-5.09-7.05-9.83,0-12.94,14.1-37,28.43-37,5.31,0,6.93,3.69,6.93,8.09,0,5-2,11.79-5.34,18.3" transform="translate(0 -0.89)"/><path d="M341.32,8.75C331,.63,311.55,1.06,311.55,1.06c-3.4,0-11.05,0-14.41,0H286.65l-.11,0h-8.65c-3.92,0-5.27.28-5,1.94.13.9,1.5,1.16,2.1,1.33,2.43.68,4.2,2,4.31,4.39.12,2.79.43,11.53.43,14.56V48.07c0,3.35,0,8.85,0,12.2l-.06,15.43a6.12,6.12,0,0,0,6.08,6.12h7.8l12.2,0s14.38,0,24.82-4.81c15.65-7.1,24.63-20.79,24.63-37.55,0-12.51-5.17-24-13.83-30.73m-33.82,66h-.77c-4.66,0-9.48,0-12-2.47-1.3-1.3-1.93-3.21-1.93-5.85V29.24c0-7.65-.19-11.26.07-19.84a96.17,96.17,0,0,1,13.89-.94c8.81,0,18,1.18,25.76,9.75,5.27,5.94,7.84,13.36,7.84,22.67,0,20.55-12.92,33.83-32.89,33.83m-34.59,4c-2.4-.84-4.24-3.69-4.3-5.15s-1.53-66.26-1.53-66.26c-.07-3.36.08-5.8-.81-6.12C265.19.8,260.61.9,259.39.9c-2.92,0-5.1-.08-5.61.54A29.2,29.2,0,0,0,251,7.56L245,20.77c-1.54,3-4.15,8.07-5.69,11l-9,17.43c-1.54,3-4.11,3-5.71.07l-9.4-17.24c-1.61-2.94-4.24-7.77-5.85-10.72L202.82,7.44c-1.34-3.08-2-5.47-2.62-6s-2.91-.5-6.26-.48H186c-3.91,0-5.68,0-5.42,1.69.13.91,1.5,1.17,2.11,1.34,2.42.68,3.31,3.64,3.31,5.11s0,60.49-.33,63.07c0,.43-.13.88-.21,1.34a.16.16,0,0,0-.1.13,6.09,6.09,0,0,1-4.31,5.15c-.6.18-2,.43-2.1,1.33-.26,1.66,1.56,1.71,5.47,1.71h2.66c.22,0,.43,0,.68,0l.06,0h9.58c3.92,0,5.73,0,5.48-1.71-.14-.91-1.51-1.16-2.1-1.33-2.43-.68-3.43-2.21-4.31-5.15,0,0,0,0,0,0a41,41,0,0,1-.62-4.47c-.13-3.36-.21-8.84-.17-12.2v-1c0-3.35.13-8.84.2-12.19l.32-13.23c.07-3.36,1.44-3.68,3-.73L208,45.9c1.59,3,9.95,18.78,11.45,21.77,1.27,2.54,1.53,3.5,5.46,3.56,4.39,0,4.39-1.17,6.2-5,1.31-2.85,20-39.66,20-39.66,1.53-3,2.85-2.69,2.94.67,0,0,.24,44.88-.08,46.9-.05.31-.09.53-.11.67a5.83,5.83,0,0,1-4,4c-.61.18-2,.43-2.11,1.33-.24,1.66,1.56,1.71,5.48,1.71H265l1.9,0,.13,0h2.47c3.93,0,5.73,0,5.49-1.71-.15-.91-1.51-1.12-2.12-1.33" transform="translate(0 -0.89)"/><rect x="3.99" y="96.45" width="351.1" height="0.76"/><path d="M351.14,5.75a3.94,3.94,0,1,1,7.89,0,3.94,3.94,0,1,1-7.89,0m4,4.87a4.85,4.85,0,1,0-4.92-4.87,4.85,4.85,0,0,0,4.92,4.87m-1-4.49h1l1.48,2.43h1l-1.59-2.46a1.47,1.47,0,0,0,1.45-1.55c0-1.11-.66-1.59-2-1.59h-2.13v5.6h.85Zm0-.71V3.69h1.15c.59,0,1.22.12,1.22.83,0,.86-.65.91-1.37.91Z" transform="translate(0 -0.89)"/><path d="M4.47,148.48V109.17H9.37V126.5a14.05,14.05,0,0,1,4.34-4.2,9.88,9.88,0,0,1,5.14-1.48A7.47,7.47,0,0,1,24.44,123a8.25,8.25,0,0,1,2.14,6v19.44H21.67V130.64a8.88,8.88,0,0,0-.5-3.71,3.42,3.42,0,0,0-1.39-1.38,4,4,0,0,0-1.92-.49,8.4,8.4,0,0,0-3.92,1.12A14.49,14.49,0,0,0,9.37,131v17.52Z" transform="translate(0 -0.89)"/><path d="M56.26,147.61a30.72,30.72,0,0,1-8.56,1.49q-6.39,0-10.06-4.25a14.86,14.86,0,0,1-3.66-10,16.81,16.81,0,0,1,1.62-7.25,11.81,11.81,0,0,1,4.23-5.11A11.21,11.21,0,0,1,46,120.82a9.4,9.4,0,0,1,7.58,3.36q2.83,3.36,2.83,10.06l0,1.49H39a13.94,13.94,0,0,0,1.57,5.53,8.3,8.3,0,0,0,3.11,3,10,10,0,0,0,4.93,1.08,18,18,0,0,0,3-.26,31.49,31.49,0,0,0,4.63-1.38ZM39.2,132.05H51.48q0-4.06-1.63-5.8a5.45,5.45,0,0,0-4.16-1.74,5.67,5.67,0,0,0-4.52,1.88A9.84,9.84,0,0,0,39.2,132.05Z" transform="translate(0 -0.89)"/><path d="M78.7,145a18.12,18.12,0,0,1-4.38,3,9.86,9.86,0,0,1-4.23,1,8.76,8.76,0,0,1-5.4-1.89,6.51,6.51,0,0,1-2.5-5.53,7.91,7.91,0,0,1,3.49-6.59q3.48-2.6,11.14-2.6H78v-3.27a5.73,5.73,0,0,0-.53-2.83A3.54,3.54,0,0,0,75.78,125a6.94,6.94,0,0,0-2.8-.5,18.49,18.49,0,0,0-8.46,2.39v-4.06a25.39,25.39,0,0,1,9.45-2,12.58,12.58,0,0,1,4.45.76A7,7,0,0,1,81.67,124q1.21,1.63,1.21,5.25v12.26a7.7,7.7,0,0,0,.32,2.75,2.37,2.37,0,0,0,2.27,1.46,6.49,6.49,0,0,0,.94-.1l.35,2.72a8.45,8.45,0,0,1-3.69.8,4.46,4.46,0,0,1-2.59-.87A5.17,5.17,0,0,1,78.7,145ZM78,142.38v-7l-1.6,0a13.37,13.37,0,0,0-6.61,1.5,4.52,4.52,0,0,0-2.67,4.06,3.92,3.92,0,0,0,1.31,3,4.35,4.35,0,0,0,3.06,1.22,8.23,8.23,0,0,0,3.2-.68A14,14,0,0,0,78,142.38Z" transform="translate(0 -0.89)"/><path d="M92.69,148.48V109.17h4.9v39.32Z" transform="translate(0 -0.89)"/><path d="M119.48,148.48a15.19,15.19,0,0,1-3.93.62,7.89,7.89,0,0,1-5.78-2.1,8,8,0,0,1-2.14-6V125.13h-3.39v-3.68h3.39v-4.91l4.91-.47v5.38h7.07v3.68h-7.07v15a6.09,6.09,0,0,0,1.09,4.07,4.44,4.44,0,0,0,3.49,1.23,10.77,10.77,0,0,0,2.37-.32Z" transform="translate(0 -0.89)"/><path d="M126.51,148.48V109.17h4.9V126.5a14.08,14.08,0,0,1,4.35-4.2,9.88,9.88,0,0,1,5.14-1.48,7.47,7.47,0,0,1,5.58,2.18,8.25,8.25,0,0,1,2.14,6v19.44h-4.91V130.64a8.92,8.92,0,0,0-.5-3.71,3.43,3.43,0,0,0-1.4-1.38,4,4,0,0,0-1.92-.49,8.41,8.41,0,0,0-3.92,1.12,14.5,14.5,0,0,0-4.57,4.79v17.52Z" transform="translate(0 -0.89)"/><path d="M170.5,146.83l.82-4.13q5.1,2.52,8.52,2.52a4.91,4.91,0,0,0,3.24-1,3.11,3.11,0,0,0,1.17-2.52,3.34,3.34,0,0,0-.47-1.76,14.09,14.09,0,0,0-1.82-2.18l-2.27-2.32a20.77,20.77,0,0,1-3.61-4.47,6.81,6.81,0,0,1-.75-3,7.18,7.18,0,0,1,2.29-5q2.29-2.39,7-2.39a21.32,21.32,0,0,1,2.92.21,25.79,25.79,0,0,1,4.64,1.36l-.82,4.13a24,24,0,0,0-4.41-1.73,12.53,12.53,0,0,0-2.59-.29,4.52,4.52,0,0,0-3.15.94,3,3,0,0,0-1,2.23,3.29,3.29,0,0,0,.45,1.64,15.67,15.67,0,0,0,2.24,2.62l2.47,2.49a17.2,17.2,0,0,1,2.9,3.66,7.22,7.22,0,0,1,.86,3.47,6.66,6.66,0,0,1-2.62,5.46,11,11,0,0,1-7.1,2.09,18.18,18.18,0,0,1-2.7-.21,22.91,22.91,0,0,1-2.7-.57A34.61,34.61,0,0,1,170.5,146.83Z" transform="translate(0 -0.89)"/><path d="M217.1,142.82a18.83,18.83,0,0,1-14.56,6.28,8.57,8.57,0,0,1-6.59-2.49,9.54,9.54,0,0,1-2.33-6.78,20.21,20.21,0,0,1,2.14-9,20,20,0,0,1,5.81-7.18,12.85,12.85,0,0,1,8-2.82,6.67,6.67,0,0,1,4.58,1.42,5.07,5.07,0,0,1,1.59,4,9.15,9.15,0,0,1-2,5.65,15.05,15.05,0,0,1-5.83,4.38,27.65,27.65,0,0,1-9.4,2.24q0,3.46,1.51,5.08a6.09,6.09,0,0,0,3.92,1.62,16.1,16.1,0,0,0,5.19-.58,20.55,20.55,0,0,0,8.69-6Zm-18.09-8a23.68,23.68,0,0,0,6.83-1.45,9.59,9.59,0,0,0,3.76-2.73,5.28,5.28,0,0,0,1.38-3.27,2.66,2.66,0,0,0-.81-1.86,2.73,2.73,0,0,0-2.08-.86,6.35,6.35,0,0,0-3.44,1.09,10.66,10.66,0,0,0-2.57,2.29,14.53,14.53,0,0,0-1.67,2.45A18.64,18.64,0,0,0,199,134.81Z" transform="translate(0 -0.89)"/><path d="M219.61,148.48l5.37-27h4.92l-2.19,11.05a35.37,35.37,0,0,1,4.53-6.21,23.78,23.78,0,0,1,4.68-4.17,8.43,8.43,0,0,1,4.58-1.3,12,12,0,0,1,1.25.08l-1.07,5.38a5.86,5.86,0,0,0-1.89-.37q-2.41,0-5.09,2.64A91.72,91.72,0,0,0,226.46,139l-1.92,9.51Z" transform="translate(0 -0.89)"/><path d="M249.38,148.27l-3.45-27h4.63l2.68,21.59,13.23-21.59h4.7l-16.83,27Z" transform="translate(0 -0.89)"/><path d="M270.95,148.27l5.37-27h4.95l-5.39,27Zm5.93-30.46,1-4.91h4.93l-1,4.91Z" transform="translate(0 -0.89)"/><path d="M304,146.64a25.38,25.38,0,0,1-10,2.46,8.43,8.43,0,0,1-6.54-2.48q-2.28-2.48-2.28-7a18.65,18.65,0,0,1,2.38-9.14,19.76,19.76,0,0,1,6.31-7,14.33,14.33,0,0,1,8.12-2.66,25.6,25.6,0,0,1,6.33.9l-.8,3.93a15.51,15.51,0,0,0-5.63-1.14,9.49,9.49,0,0,0-5.59,1.82,13.1,13.1,0,0,0-4.23,5.46,17.94,17.94,0,0,0-1.65,7.5q0,3,1.44,4.38a5.05,5.05,0,0,0,3.56,1.33,11.68,11.68,0,0,0,2.55-.35,33.26,33.26,0,0,0,3.25-.94,21.87,21.87,0,0,0,3.73-1.74Z" transform="translate(0 -0.89)"/><path d="M335.21,146.83l.82-4.13q5.1,2.52,8.51,2.52a4.93,4.93,0,0,0,3.24-1,3.12,3.12,0,0,0,1.17-2.52,3.34,3.34,0,0,0-.47-1.76,14.11,14.11,0,0,0-1.82-2.18l-2.27-2.32a21,21,0,0,1-3.61-4.47,6.83,6.83,0,0,1-.75-3,7.18,7.18,0,0,1,2.29-5q2.29-2.39,7-2.39a21.32,21.32,0,0,1,2.92.21,25.88,25.88,0,0,1,4.65,1.36l-.82,4.13a24.1,24.1,0,0,0-4.41-1.73,12.58,12.58,0,0,0-2.59-.29,4.51,4.51,0,0,0-3.15.94,2.94,2.94,0,0,0-1,2.23,3.32,3.32,0,0,0,.45,1.64,15.58,15.58,0,0,0,2.24,2.62l2.46,2.49a17.2,17.2,0,0,1,2.9,3.66,7.18,7.18,0,0,1,.86,3.47,6.66,6.66,0,0,1-2.62,5.46,11,11,0,0,1-7.1,2.09,18.22,18.22,0,0,1-2.7-.21,22.78,22.78,0,0,1-2.7-.57A34.48,34.48,0,0,1,335.21,146.83Z" transform="translate(0 -0.89)"/><path d="M333.18,142.61a18.83,18.83,0,0,1-14.56,6.28A8.57,8.57,0,0,1,312,146.4a9.54,9.54,0,0,1-2.33-6.78,20.21,20.21,0,0,1,2.14-9,20,20,0,0,1,5.81-7.18,12.85,12.85,0,0,1,8-2.82,6.67,6.67,0,0,1,4.58,1.42,5.07,5.07,0,0,1,1.59,4,9.15,9.15,0,0,1-2,5.65A15.05,15.05,0,0,1,324,136a27.65,27.65,0,0,1-9.4,2.24q0,3.46,1.51,5.08a6.09,6.09,0,0,0,3.92,1.62,16.1,16.1,0,0,0,5.19-.58,20.55,20.55,0,0,0,8.69-6Zm-18.09-8a23.68,23.68,0,0,0,6.83-1.45,9.59,9.59,0,0,0,3.76-2.73,5.28,5.28,0,0,0,1.38-3.27,2.66,2.66,0,0,0-.81-1.86,2.73,2.73,0,0,0-2.08-.86,6.35,6.35,0,0,0-3.44,1.09,10.66,10.66,0,0,0-2.57,2.29,14.53,14.53,0,0,0-1.67,2.45A18.64,18.64,0,0,0,315.08,134.6Z" transform="translate(0 -0.89)"/></svg>