<svg width="199" height="75" viewBox="0 23 199 75" fill="none" xmlns="http://www.w3.org/2000/svg">
<path fill-rule="evenodd" clip-rule="evenodd" d="M37.1385 76.2761C40.7895 47.0193 59.273 26.1967 62.7389 22.5414L11.5367 22.54C14.9946 26.2049 33.5469 47.011 37.1385 76.2761ZM26.6043 97.9987L0 98V33.8303C3.65365 37.6697 26.5462 63.143 26.6043 97.9987Z" fill="#005087"/>
<path fill-rule="evenodd" clip-rule="evenodd" d="M96.0567 41.1602L96.669 45.2245L100.725 46.1126L97.0065 47.9441L97.4069 52.0342L94.4961 49.1012L90.6861 50.7421L92.6074 47.0979L89.8524 44.0216L93.9495 44.7029L96.0567 41.1602ZM115.114 50.3527L113.587 54.1752L116.655 56.9502L112.505 56.6974L110.786 60.4375L109.746 56.4582L105.618 55.996L109.126 53.79L108.293 49.7621L111.5 52.3789L115.114 50.3527ZM54.9779 89.9118L51.515 87.6424L52.7667 91.5608L49.5116 94.1182L53.6673 94.1506L55.12 98.0002L56.4361 94.1034L60.5878 93.9263L57.2466 91.4838L58.3589 87.5234L54.9779 89.9119M48.0342 73.9176L52.1423 73.312L53.0401 69.3003L54.8932 72.9782L59.0272 72.5822L56.0631 75.4612L57.7208 79.2296L54.0363 77.3292L50.9259 80.0541L51.6147 76.0019L48.0342 73.9176ZM57.3271 54.3496L61.1919 55.858L63.9989 52.8263L63.7434 56.9286L67.5247 58.6304L63.5015 59.6576L63.0341 63.741L60.8037 60.2726L56.7312 61.0944L59.3757 57.9247L57.3271 54.3496ZM74.9058 42.6226L77.4899 45.8409L81.4532 44.6027L79.1572 48.0279L81.572 51.3719L77.5692 50.2716L75.0983 53.5765L74.9207 49.4702L70.9794 48.1685L74.8716 46.7317L74.9057 42.6226" fill="#FDC300"/>
<path fill-rule="evenodd" clip-rule="evenodd" d="M77.4436 94.2842C77.4154 96.8587 79.5006 98 81.7298 98C84.4665 98 85.9164 96.5667 85.9164 94.6491C85.9164 92.2781 83.6629 91.7952 82.9278 91.6043C80.4039 90.9291 79.9233 90.828 79.9233 90.0221C79.9233 89.1435 80.7417 88.836 81.4471 88.836C82.5051 88.836 83.3667 89.1574 83.438 90.4181H85.5798C85.5798 88.0021 83.6481 87.0518 81.5454 87.0518C79.7267 87.0518 77.7829 88.0751 77.7829 90.2131C77.7829 92.1742 79.2892 92.7736 80.7847 93.1836C82.2656 93.5949 83.7746 93.7858 83.7746 94.9116C83.7746 95.9828 82.5913 96.2144 81.8146 96.2144C80.6286 96.2144 79.5853 95.6739 79.5853 94.2842H77.4436ZM88.2021 97.7501H95.8441V95.8199H90.4139V93.258H95.2949V91.4737H90.4139V89.2305H95.7311V87.3002H88.2021V97.7501ZM98.3157 97.7501H100.529V93.6679H102.745C103.858 93.6679 104.267 94.1493 104.423 95.2485C104.536 96.081 104.508 97.0932 104.775 97.7501H106.988C106.592 97.1648 106.608 95.9351 106.564 95.278C106.494 94.2238 106.184 93.1246 105.099 92.8326V92.8031C106.212 92.3357 106.692 91.4148 106.692 90.185C106.692 88.6016 105.55 87.3002 103.746 87.3002H98.3157V97.7501ZM100.529 89.0844H102.955C103.944 89.0844 104.48 89.5238 104.48 90.536C104.48 91.5903 103.944 92.0297 102.955 92.0297H100.529V89.0844ZM117.203 87.3002H114.918L112.648 94.6478H112.62L110.379 87.3002H108.096L111.367 97.7501H113.861L117.203 87.3002ZM119.003 97.7501H121.215V87.3016H119.003V97.7501ZM132.889 90.8125C132.62 88.3994 130.76 87.0518 128.546 87.0518C125.429 87.0518 123.597 89.4649 123.597 92.5687C123.597 95.5855 125.429 98.0001 128.546 98.0001C131.014 98.0001 132.748 96.3323 132.973 93.7269H130.829C130.66 95.1026 129.898 96.0698 128.546 96.0698C126.556 96.0698 125.81 94.3136 125.81 92.5687C125.81 90.741 126.556 88.982 128.546 88.982C129.644 88.982 130.605 89.7737 130.745 90.8125H132.89H132.889ZM135.329 97.7501H142.97V95.8199H137.541V93.258H142.421V91.4737H137.541V89.2305H142.857V87.3002H135.329V97.7501ZM160.73 97.7501H162.14V92.1012H157.91V93.8139H160.138C160.012 95.2626 159.18 96.0697 157.74 96.0697C155.751 96.0697 155.004 94.3136 155.004 92.5687C155.004 90.741 155.751 88.982 157.74 88.982C158.783 88.982 159.617 89.5829 159.871 90.741H161.984C161.745 88.3699 159.8 87.0518 157.74 87.0518C154.622 87.0518 152.792 89.4649 152.792 92.5687C152.792 95.5855 154.622 98.0001 157.74 98.0001C158.714 98.0001 159.73 97.6042 160.503 96.5667L160.73 97.7501ZM164.862 97.7501H166.933V90.4195H166.961L169.43 97.7501H171.137L173.604 90.3436H173.633V97.7501H175.705V87.3003H172.59L170.361 94.4893H170.332L167.978 87.3003H164.862V97.7502V97.7501ZM180.782 93.0951H183.193C184.139 93.0951 184.788 93.5219 184.788 94.5887C184.788 95.6725 184.027 95.9658 183.152 95.9658H180.782V93.0951ZM178.569 97.7501H183.448C185.268 97.7501 187 96.8433 187 94.7221C187 93.418 186.379 92.4382 185.155 92.0717C186.028 91.6337 186.521 90.9179 186.521 89.8917C186.521 87.9446 185.225 87.3002 183.308 87.3002H178.569V97.7501ZM180.782 89.0844H182.855C183.646 89.0844 184.38 89.2894 184.38 90.2861C184.38 91.1649 183.801 91.5327 183.025 91.5327H180.782V89.0844ZM189.403 97.7501H191.615V93.2412H195.693V97.7502H197.904V87.3003H195.692V91.311H191.615V87.3003H189.403V97.7502V97.7501ZM165.444 79.0487H167.654V74.9636H169.867C170.979 74.9636 171.389 75.448 171.544 76.5443C171.655 77.3795 171.628 78.3889 171.895 79.0487H174.106C173.712 78.4633 173.725 77.2336 173.683 76.5738C173.613 75.5195 173.304 74.4245 172.22 74.1311V74.1016C173.331 73.6342 173.81 72.7105 173.81 71.4808C173.81 69.9001 172.67 68.6002 170.867 68.6002H165.444V79.0487ZM167.654 70.3816H170.078C171.064 70.3816 171.6 70.8224 171.6 71.8316C171.6 72.886 171.064 73.3254 170.078 73.3254H167.654V70.3816ZM175.205 79.0486H177.446L178.232 76.7197H181.994L182.754 79.0487H185.05L181.291 68.6001H179.021L175.205 79.0487V79.0486ZM180.121 71.1761H180.148L181.417 75.0113H178.81L180.121 71.1761ZM186.361 79.0487H188.57V68.6001H186.361V79.0487ZM190.908 79.0487H198.02V77.1184H193.118V68.6001H190.908V79.0487Z" fill="#005087"/>
<path fill-rule="evenodd" clip-rule="evenodd" d="M77.4434 79.1589H85.1055V77.4309H79.6607V75.1349H84.5536V73.5375H79.6607V71.5331H84.9931V69.805H77.4434V79.1589ZM95.5532 69.805H93.3345V75.6225C93.3345 77.0111 92.8246 77.652 91.2407 77.652C89.4451 77.652 89.1616 76.6442 89.1616 75.6225V69.805H86.9445V75.6225C86.9445 78.1636 88.5271 79.3801 91.2407 79.3801C93.9434 79.3801 95.5532 78.1497 95.5532 75.6225V69.805ZM97.8776 79.1589H100.095V75.5018H102.315C103.434 75.5018 103.843 75.9354 103.999 76.9169C104.113 77.6646 104.085 78.5683 104.352 79.1589H106.572C106.176 78.6348 106.189 77.534 106.147 76.9433C106.075 75.9995 105.765 75.0192 104.677 74.7566V74.7302C105.793 74.3117 106.273 73.4847 106.273 72.3839C106.273 70.9688 105.13 69.8051 103.321 69.8051H97.8776V79.1589ZM100.095 71.3999H102.528C103.519 71.3999 104.056 71.7945 104.056 72.698C104.056 73.6419 103.519 74.0353 102.528 74.0353H100.095V71.3999ZM107.905 74.5216C107.905 77.2211 109.741 79.3801 112.867 79.3801C115.992 79.3801 117.827 77.221 117.827 74.5216C117.827 71.743 115.992 69.5801 112.867 69.5801C109.741 69.5801 107.905 71.743 107.905 74.5216ZM110.123 74.5216C110.123 72.8816 110.873 71.3081 112.867 71.3081C114.86 71.3081 115.611 72.8816 115.611 74.5215C115.611 76.0799 114.86 77.652 112.867 77.652C110.873 77.652 110.123 76.0799 110.123 74.5216ZM119.732 79.1589H121.95V75.8047H124.284C126.801 75.8047 127.773 74.3243 127.773 72.8037C127.773 71.2829 126.801 69.805 124.284 69.805H119.732V79.1589ZM121.95 71.3999H123.675C124.709 71.3999 125.626 71.611 125.626 72.8036C125.626 73.9975 124.709 74.2074 123.675 74.2074H121.95V71.3999ZM129.346 79.1588H137.008V77.4309H131.563V75.1349H136.456V73.5375H131.563V71.5331H136.895V69.805H129.346V79.1589V79.1588ZM138.105 79.1588H140.353L141.145 77.074H144.919L145.682 79.1589H147.986L144.212 69.805H141.936L138.105 79.1589V79.1588ZM143.039 72.1112H143.067L144.34 75.5446H141.724L143.039 72.1112ZM149.302 79.1589H151.381V72.8967H151.41L155.61 79.1589H157.828V69.805H155.752V76.0787H155.723L151.507 69.805H149.302V79.1589Z" fill="#FDC300"/>
<path fill-rule="evenodd" clip-rule="evenodd" d="M145.658 22.54L137.698 48.8382H137.597L129.789 22.54H122.537L134.099 60.76H141.298L152.809 22.54H145.658ZM170.689 22.54C179.056 22.54 181.946 23.7693 184.38 26.1221C186.002 27.7081 187.32 29.8046 187.32 33.6427C187.32 42.1367 180.526 45.7683 172.869 45.7683H166.225V60.76H158.822V22.54H170.689ZM166.225 29.192V39.5265H172.363C175.708 39.5265 179.562 38.0425 179.562 34.1025C179.562 29.9079 175.506 29.192 172.514 29.192H166.225ZM190.615 60.76H198.02V22.54H190.615V60.76Z" fill="#005087"/>
</svg>
